<svg width="34" height="36" xmlns="http://www.w3.org/2000/svg" xmlns:xlink="http://www.w3.org/1999/xlink">
  <defs>
    <path d="M43.996 46s-4.713-1.739-8.526-3.132H19.437c-1.898 0-3.437-1.53-3.437-3.417V19.417C16 17.53 17.539 16 19.437 16h21.121c1.898 0 3.437 1.53 3.437 3.417v17.254h.001V46zm-4.138-11.233a.92.92 0 0 0-1.292-.099c-.03.025-3.015 2.514-8.569 2.514-5.485 0-8.516-2.471-8.57-2.516a.92.92 0 0 0-1.29.1.908.908 0 0 0 .099 1.286c.142.12 3.537 2.953 9.761 2.953 6.225 0 9.62-2.833 9.762-2.953a.908.908 0 0 0 .099-1.285z" id="b"/>
    <filter x="-19.6%" y="-11.7%" width="139.3%" height="136.7%" filterUnits="objectBoundingBox" id="a">
      <feOffset dy="2" in="SourceAlpha" result="shadowOffsetOuter1"/>
      <feGaussianBlur stdDeviation="1.5" in="shadowOffsetOuter1" result="shadowBlurOuter1"/>
      <feColorMatrix values="0 0 0 0 0 0 0 0 0 0 0 0 0 0 0 0 0 0 0.04 0" in="shadowBlurOuter1"/>
    </filter>
  </defs>
  <g transform="translate(-13 -15)" fill="none" fill-rule="evenodd">
    <use fill="#000" filter="url(#a)" xlink:href="#b"/>
    <use fill="#FFF" xlink:href="#b"/>
  </g>
</svg>
